<?xml version="1.0" encoding="UTF-8"?>
<svg version="1.1" xmlns="http://www.w3.org/2000/svg" width="192" height="192">
<path d="M0 0 C1.70660984 0.15143397 3.41675648 0.2619056 5.12695312 0.36523438 C5.45695312 0.03523438 5.78695312 -0.29476562 6.12695312 -0.63476562 C7.79312428 -0.67540395 9.46083407 -0.67748663 11.12695312 -0.63476562 C10.51417701 2.32698561 9.87322791 3.7458222 8.12695312 6.36523438 C7.74195422 8.02072969 7.39902178 9.68747768 7.12695312 11.36523438 C6.13695312 11.36523438 5.14695312 11.36523438 4.12695312 11.36523438 C4.12695312 12.02523437 4.12695312 12.68523437 4.12695312 13.36523438 C4.78695312 13.69523437 5.44695312 14.02523437 6.12695312 14.36523438 C5.60101563 15.78835937 5.60101563 15.78835937 5.06445312 17.24023438 C3.77668536 20.23583609 3.77668536 20.23583609 5.12695312 22.36523438 C1.05539771 26.66298732 -1.98820811 29.61470203 -8.06054688 29.80273438 C-14.72274905 29.68160343 -19.51146387 25.93962305 -24.87304688 22.36523438 C-25.41992188 20.30664062 -25.41992188 20.30664062 -25.62304688 17.92773438 C-25.70039062 17.14527344 -25.77773438 16.3628125 -25.85742188 15.55664062 C-25.87304688 13.36523438 -25.87304688 13.36523438 -24.87304688 10.36523438 C-24.21304688 10.36523438 -23.55304687 10.36523438 -22.87304688 10.36523438 C-22.83179688 9.80835937 -22.79054687 9.25148438 -22.74804688 8.67773438 C-21.4501126 5.24747949 -18.92267871 3.24488167 -15.87304688 1.36523438 C-10.38886772 -1.00651552 -5.84333207 -0.55940904 0 0 Z M-10.87304688 3.36523438 C-11.20304687 4.02523437 -11.53304687 4.68523437 -11.87304688 5.36523438 C-11.21304688 5.36523438 -10.55304687 5.36523438 -9.87304688 5.36523438 C-10.20304687 4.70523438 -10.53304687 4.04523438 -10.87304688 3.36523438 Z M-2.87304688 3.36523438 C-2.54304688 4.02523437 -2.21304688 4.68523437 -1.87304688 5.36523438 C-1.21304688 5.03523438 -0.55304688 4.70523438 0.12695312 4.36523438 C-0.86304688 4.03523438 -1.85304688 3.70523438 -2.87304688 3.36523438 Z M-7.87304688 4.36523438 C-8.20304687 5.35523437 -8.53304687 6.34523438 -8.87304688 7.36523438 C-8.21304688 7.36523438 -7.55304687 7.36523438 -6.87304688 7.36523438 C-7.20304687 6.37523438 -7.53304687 5.38523437 -7.87304688 4.36523438 Z M-16.87304688 5.36523438 C-17.20304687 6.02523437 -17.53304687 6.68523437 -17.87304688 7.36523438 C-17.21304688 7.36523438 -16.55304687 7.36523438 -15.87304688 7.36523438 C-16.20304687 6.70523438 -16.53304687 6.04523438 -16.87304688 5.36523438 Z M-18.87304688 7.36523438 C-19.20304687 9.67523438 -19.53304687 11.98523438 -19.87304688 14.36523438 C-18.74788603 12.53238994 -18.74788603 12.53238994 -17.87304688 10.36523438 C-18.20304687 9.37523438 -18.53304687 8.38523437 -18.87304688 7.36523438 Z M-8.87304688 8.36523438 C-9.53304687 9.02523437 -10.19304688 9.68523437 -10.87304688 10.36523438 C-9.88304687 10.86023438 -9.88304687 10.86023438 -8.87304688 11.36523438 C-7.55304687 10.37523438 -6.23304687 9.38523437 -4.87304688 8.36523438 C-6.19304688 8.36523438 -7.51304688 8.36523438 -8.87304688 8.36523438 Z M1.12695312 8.36523438 C0.79695313 10.01523438 0.46695313 11.66523437 0.12695312 13.36523438 C0.78695312 13.36523438 1.44695312 13.36523438 2.12695312 13.36523438 C2.12695312 11.71523437 2.12695312 10.06523438 2.12695312 8.36523438 C1.79695313 8.36523438 1.46695313 8.36523438 1.12695312 8.36523438 Z M-16.87304688 9.36523438 C-16.87304688 10.68523437 -16.87304688 12.00523438 -16.87304688 13.36523438 C-15.88304687 13.03523438 -14.89304687 12.70523438 -13.87304688 12.36523438 C-14.20304687 11.37523438 -14.53304687 10.38523437 -14.87304688 9.36523438 C-15.53304687 9.36523438 -16.19304688 9.36523438 -16.87304688 9.36523438 Z M-4.87304688 15.36523438 C-4.87304688 16.68523437 -4.87304688 18.00523438 -4.87304688 19.36523438 C-3.88304688 19.36523438 -2.89304687 19.36523438 -1.87304688 19.36523438 C-1.87304688 18.04523438 -1.87304688 16.72523437 -1.87304688 15.36523438 C-2.86304688 15.36523438 -3.85304688 15.36523438 -4.87304688 15.36523438 Z M0.12695312 15.36523438 C0.45695312 16.68523437 0.78695312 18.00523438 1.12695312 19.36523438 C1.45695312 18.04523438 1.78695312 16.72523437 2.12695312 15.36523438 C1.46695313 15.36523438 0.80695313 15.36523438 0.12695312 15.36523438 Z M-8.87304688 21.36523438 C-7.88304688 22.85023437 -7.88304688 22.85023437 -6.87304688 24.36523438 C-6.87304688 23.37523437 -6.87304688 22.38523437 -6.87304688 21.36523438 C-7.53304687 21.36523438 -8.19304688 21.36523438 -8.87304688 21.36523438 Z M-4.87304688 21.36523438 C-4.54304688 22.68523437 -4.21304688 24.00523438 -3.87304688 25.36523438 C-3.54304688 24.04523438 -3.21304688 22.72523437 -2.87304688 21.36523438 C-3.53304687 21.36523438 -4.19304688 21.36523438 -4.87304688 21.36523438 Z M-13.87304688 22.36523438 C-12.87304688 24.36523438 -12.87304688 24.36523438 -12.87304688 24.36523438 Z M-11.87304688 22.36523438 C-11.21304688 23.02523437 -10.55304687 23.68523437 -9.87304688 24.36523438 C-9.87304688 23.70523438 -9.87304688 23.04523438 -9.87304688 22.36523438 C-10.53304687 22.36523438 -11.19304688 22.36523438 -11.87304688 22.36523438 Z " fill="#3298CD" transform="translate(67.873046875,78.634765625)"/>
<path d="M0 0 C14 0 28 0 42 0 C43.69328316 -0.00853403 45.38656629 -0.01707397 47.07984924 -0.02565002 C49.97583184 -0.03888358 52.87182049 -0.04713075 55.76782227 -0.05493164 C57.29940471 -0.05998314 58.83098229 -0.06682327 60.36254883 -0.07543945 C62.56593002 -0.08751342 64.76924812 -0.09322841 66.97265625 -0.09765625 C68.00544456 -0.10539818 68.00544456 -0.10539818 69.05909729 -0.11329651 C70.70649778 -0.11349273 72.35376278 -0.06189863 74 0 C75 1 75 1 75.0625 4.0625 C75.041875 5.031875 75.02125 6.00125 75 7 C70.94606301 7.96863291 67.16926957 8.12102571 63.0065918 8.11352539 C61.98137169 8.11374443 61.98137169 8.11374443 60.93544006 8.1139679 C58.68999999 8.11327462 56.44464423 8.10550974 54.19921875 8.09765625 C52.63694809 8.09578999 51.07467685 8.09436707 49.5124054 8.09336853 C45.41069916 8.08955972 41.30902861 8.07974346 37.20733643 8.06866455 C33.01778649 8.0584152 28.82823075 8.05386337 24.63867188 8.04882812 C16.42576491 8.03811967 8.2128869 8.02106297 0 8 C0 5.36 0 2.72 0 0 Z M36 2 C37 4 37 4 37 4 Z M52 3 C52 3.66 52 4.32 52 5 C52.66 5 53.32 5 54 5 C54 4.34 54 3.68 54 3 C53.34 3 52.68 3 52 3 Z " fill="#E2E8EB" transform="translate(75,90)"/>
<path d="M0 0 C2.44151775 0.21468912 4.86280387 0.38179995 7.3125 0.5 C7.6425 0.17 7.9725 -0.16 8.3125 -0.5 C9.97867115 -0.54063832 11.64638095 -0.542721 13.3125 -0.5 C12.69972388 2.46175123 12.05877478 3.88058783 10.3125 6.5 C9.92750109 8.15549531 9.58456865 9.8222433 9.3125 11.5 C8.3225 11.5 7.3325 11.5 6.3125 11.5 C6.3125 12.16 6.3125 12.82 6.3125 13.5 C6.9725 13.83 7.6325 14.16 8.3125 14.5 C6.57904815 19.0069748 5.22234269 22.4454354 1.3125 25.5 C0.3225 25.5 -0.6675 25.5 -1.6875 25.5 C-1.3575 24.18 -1.0275 22.86 -0.6875 21.5 C-1.3475 21.5 -2.0075 21.5 -2.6875 21.5 C-2.6875 23.15 -2.6875 24.8 -2.6875 26.5 C-4.9975 26.17 -7.3075 25.84 -9.6875 25.5 C-10.0175 24.18 -10.3475 22.86 -10.6875 21.5 C-7.6875 19.5 -7.6875 19.5 -4.6875 19.5 C-4.605 18.9225 -4.5225 18.345 -4.4375 17.75 C-3.48218987 14.8840696 -1.90280827 13.5009236 0.3125 11.5 C-0.0175 10.84 -0.3475 10.18 -0.6875 9.5 C-3.00906597 9.09270772 -5.3443787 8.75561323 -7.6875 8.5 C-8.0175 7.18 -8.3475 5.86 -8.6875 4.5 C-9.63625 4.70625 -10.585 4.9125 -11.5625 5.125 C-12.59375 5.24875 -13.625 5.3725 -14.6875 5.5 C-15.3475 4.84 -16.0075 4.18 -16.6875 3.5 C-10.78042761 -0.27396292 -6.92266989 -0.61915411 0 0 Z M-0.6875 3.5 C-0.3575 4.16 -0.0275 4.82 0.3125 5.5 C0.9725 5.17 1.6325 4.84 2.3125 4.5 C1.3225 4.17 0.3325 3.84 -0.6875 3.5 Z M-5.6875 4.5 C-6.0175 5.49 -6.3475 6.48 -6.6875 7.5 C-6.0275 7.5 -5.3675 7.5 -4.6875 7.5 C-5.0175 6.51 -5.3475 5.52 -5.6875 4.5 Z M3.3125 8.5 C2.9825 10.15 2.6525 11.8 2.3125 13.5 C2.9725 13.5 3.6325 13.5 4.3125 13.5 C4.3125 11.85 4.3125 10.2 4.3125 8.5 C3.9825 8.5 3.6525 8.5 3.3125 8.5 Z M-2.6875 15.5 C-2.6875 16.82 -2.6875 18.14 -2.6875 19.5 C-1.6975 19.5 -0.7075 19.5 0.3125 19.5 C0.3125 18.18 0.3125 16.86 0.3125 15.5 C-0.6775 15.5 -1.6675 15.5 -2.6875 15.5 Z M2.3125 15.5 C2.6425 16.82 2.9725 18.14 3.3125 19.5 C3.6425 18.18 3.9725 16.86 4.3125 15.5 C3.6525 15.5 2.9925 15.5 2.3125 15.5 Z M-6.6875 21.5 C-5.6975 22.985 -5.6975 22.985 -4.6875 24.5 C-4.6875 23.51 -4.6875 22.52 -4.6875 21.5 C-5.3475 21.5 -6.0075 21.5 -6.6875 21.5 Z M-9.6875 22.5 C-9.0275 23.16 -8.3675 23.82 -7.6875 24.5 C-7.6875 23.84 -7.6875 23.18 -7.6875 22.5 C-8.3475 22.5 -9.0075 22.5 -9.6875 22.5 Z " fill="#38A4DB" transform="translate(65.6875,78.5)"/>
<path d="M0 0 C12.21 0 24.42 0 37 0 C36.67 2.64 36.34 5.28 36 8 C24.12 8 12.24 8 0 8 C0 5.36 0 2.72 0 0 Z " fill="#E9EEF0" transform="translate(75,90)"/>
<path d="M0 0 C0.99 0.33 1.98 0.66 3 1 C3.33 1.99 3.66 2.98 4 4 C2.9171875 4.8353125 2.9171875 4.8353125 1.8125 5.6875 C-0.97865112 7.98244648 -3.47974967 10.4134273 -6 13 C-6.99881587 14.00118273 -7.99855387 15.00144822 -9 16 C-2.54248018 17.21536087 1.12942927 16.93528537 7 14 C7.99 14 8.98 14 10 14 C5.92844458 18.29775294 2.88483877 21.24946765 -3.1875 21.4375 C-9.84970218 21.31636905 -14.63841699 17.57438867 -20 14 C-20 13.34 -20 12.68 -20 12 C-19.31035156 11.93683594 -18.62070312 11.87367187 -17.91015625 11.80859375 C-10.20664736 10.80470713 -5.67462311 8.24026924 0 3 C-0.66 2.34 -1.32 1.68 -2 1 C-1.34 0.67 -0.68 0.34 0 0 Z " fill="#2D78B7" transform="translate(63,87)"/>
<path d="M0 0 C2 3 2 3 2 6 C2.66 6.33 3.32 6.66 4 7 C2.26654815 11.5069748 0.90984269 14.9454354 -3 18 C-3.99 18 -4.98 18 -6 18 C-5.67 16.68 -5.34 15.36 -5 14 C-5.66 14 -6.32 14 -7 14 C-7 15.65 -7 17.3 -7 19 C-9.31 18.67 -11.62 18.34 -14 18 C-14.33 16.68 -14.66 15.36 -15 14 C-12 12 -12 12 -9 12 C-8.95875 11.443125 -8.9175 10.88625 -8.875 10.3125 C-7.53069626 6.75969726 -4.99025811 5.29041047 -2 3 C-2 3.99 -2 4.98 -2 6 C-1.34 6 -0.68 6 0 6 C0 4.02 0 2.04 0 0 Z M-7 8 C-7 9.32 -7 10.64 -7 12 C-6.01 12 -5.02 12 -4 12 C-4 10.68 -4 9.36 -4 8 C-4.99 8 -5.98 8 -7 8 Z M-2 8 C-1.67 9.32 -1.34 10.64 -1 12 C-0.67 10.68 -0.34 9.36 0 8 C-0.66 8 -1.32 8 -2 8 Z M-11 14 C-10.01 15.485 -10.01 15.485 -9 17 C-9 16.01 -9 15.02 -9 14 C-9.66 14 -10.32 14 -11 14 Z M-14 15 C-13.34 15.66 -12.68 16.32 -12 17 C-12 16.34 -12 15.68 -12 15 C-12.66 15 -13.32 15 -14 15 Z " fill="#082444" transform="translate(70,86)"/>
<path d="M0 0 C1.32 0 2.64 0 4 0 C5.546875 -0.061875 5.546875 -0.061875 7.125 -0.125 C10 0 10 0 12 2 C12 3.98 12 5.96 12 8 C7.38 8 2.76 8 -2 8 C-1.125 1.125 -1.125 1.125 0 0 Z " fill="#3DA7DC" transform="translate(113,90)"/>
<path d="M0 0 C0.66 0.33 1.32 0.66 2 1 C-4.27612344 7.62479697 -4.27612344 7.62479697 -9.18359375 8.30078125 C-13.88147578 8.32520698 -17.2826965 8.23765144 -21 5 C-21 4.01 -21 3.02 -21 2 C-20.443125 2.15597656 -19.88625 2.31195313 -19.3125 2.47265625 C-13.7782638 3.88426042 -9.60144102 4.23421582 -4 3 C-1.56111818 1.59394927 -1.56111818 1.59394927 0 0 Z " fill="#359DD3" transform="translate(71,100)"/>
<path d="M0 0 C0.33 1.98 0.66 3.96 1 6 C-0.32 6 -1.64 6 -3 6 C-3 6.66 -3 7.32 -3 8 C-4.32 8 -5.64 8 -7 8 C-7.33 6.68 -7.66 5.36 -8 4 C-8.94875 4.20625 -9.8975 4.4125 -10.875 4.625 C-11.90625 4.74875 -12.9375 4.8725 -14 5 C-14.66 4.34 -15.32 3.68 -16 3 C-10.04146092 -0.80684442 -7.02739603 -1.21628008 0 0 Z M-5 4 C-5.33 4.99 -5.66 5.98 -6 7 C-5.34 7 -4.68 7 -4 7 C-4.33 6.01 -4.66 5.02 -5 4 Z " fill="#3083B3" transform="translate(65,79)"/>
<path d="M0 0 C3.3 0 6.6 0 10 0 C10 1.98 10 3.96 10 6 C8.68 6 7.36 6 6 6 C6 5.01 6 4.02 6 3 C5.34 3 4.68 3 4 3 C4 3.99 4 4.98 4 6 C2.68 6 1.36 6 0 6 C0 4.02 0 2.04 0 0 Z " fill="#F6F8F9" transform="translate(95,91)"/>
<path d="M0 0 C0.66 0.33 1.32 0.66 2 1 C0.73299277 1.9841125 -0.5387619 2.96211497 -1.8125 3.9375 C-2.87404297 4.75541016 -2.87404297 4.75541016 -3.95703125 5.58984375 C-7.04274847 7.71975564 -9.53700933 8.12234411 -13.1875 8.0625 C-15.0746875 8.0315625 -15.0746875 8.0315625 -17 8 C-17.33 6.68 -17.66 5.36 -18 4 C-17.05640625 4.06960937 -17.05640625 4.06960937 -16.09375 4.140625 C-10.31419113 4.38434134 -6.55885049 3.79913647 -1.59375 0.77734375 C-1.0678125 0.52082031 -0.541875 0.26429687 0 0 Z " fill="#67BCE3" transform="translate(60,91)"/>
<path d="M0 0 C1.32 0 2.64 0 4 0 C4.66 1.32 5.32 2.64 6 4 C7.65 4 9.3 4 11 4 C9.71567636 6.56864728 8.63365249 6.946539 6 8 C4.68 8 3.36 8 2 8 C2 7.34 2 6.68 2 6 C0.54166642 4.37485532 0.54166642 4.37485532 -1 3 C-0.67 2.01 -0.34 1.02 0 0 Z " fill="#49A5D4" transform="translate(53,85)"/>
<path d="M0 0 C0.99 0 1.98 0 3 0 C3 1.98 3 3.96 3 6 C-1.29299643 7.26264601 -3.87831311 6.62950412 -8 5 C-7.34 3.68 -6.68 2.36 -6 1 C-5.67 1.66 -5.34 2.32 -5 3 C-3.68 2.67 -2.36 2.34 -1 2 C-0.67 2.66 -0.34 3.32 0 4 C0 2.68 0 1.36 0 0 Z " fill="#ECF0F2" transform="translate(147,91)"/>
<path d="M0 0 C0.33 1.32 0.66 2.64 1 4 C0.34 4 -0.32 4 -1 4 C-1 3.01 -1 2.02 -1 1 C-2.32 1 -3.64 1 -5 1 C-5.66 3.31 -6.32 5.62 -7 8 C-5.68 7.34 -4.36 6.68 -3 6 C-3 6.99 -3 7.98 -3 9 C-2.34 9.33 -1.68 9.66 -1 10 C-2.32 10.33 -3.64 10.66 -5 11 C-5 10.34 -5 9.68 -5 9 C-6.32 9 -7.64 9 -9 9 C-8.67 6.69 -8.34 4.38 -8 2 C-7.34 2 -6.68 2 -6 2 C-6 1.34 -6 0.68 -6 0 C-3.50907189 -1.24546405 -2.58919267 -0.7767578 0 0 Z " fill="#3687B4" transform="translate(58,84)"/>
<path d="M0 0 C1.22589844 0.01353516 1.22589844 0.01353516 2.4765625 0.02734375 C3.41628906 0.04474609 3.41628906 0.04474609 4.375 0.0625 C5.035 1.3825 5.695 2.7025 6.375 4.0625 C5.055 4.0625 3.735 4.0625 2.375 4.0625 C2.375 4.7225 2.375 5.3825 2.375 6.0625 C1.055 6.0625 -0.265 6.0625 -1.625 6.0625 C-1.955 4.7425 -2.285 3.4225 -2.625 2.0625 C-3.945 1.7325 -5.265 1.4025 -6.625 1.0625 C-4.21954362 -0.14022819 -2.67503047 -0.03821472 0 0 Z M0.375 2.0625 C0.045 3.0525 -0.285 4.0425 -0.625 5.0625 C0.035 5.0625 0.695 5.0625 1.375 5.0625 C1.045 4.0725 0.715 3.0825 0.375 2.0625 Z " fill="#113457" transform="translate(59.625,80.9375)"/>
<path d="M0 0 C0.66 0 1.32 0 2 0 C2 0.66 2 1.32 2 2 C4.64 2 7.28 2 10 2 C9.67 2.99 9.34 3.98 9 5 C1.25 5.125 1.25 5.125 -1 4 C-0.67 2.68 -0.34 1.36 0 0 Z " fill="#389FD5" transform="translate(43,91)"/>
<path d="M0 0 C2 3 2 3 2 6 C2.66 6.33 3.32 6.66 4 7 C1.53846154 13.64615385 1.53846154 13.64615385 -1.1875 15.4375 C-2.0846875 15.7159375 -2.0846875 15.7159375 -3 16 C-2.68289062 15.29488281 -2.36578125 14.58976562 -2.0390625 13.86328125 C-0.95461714 10.87494121 -0.6035641 8.34930342 -0.375 5.1875 C-0.26285156 3.72376953 -0.26285156 3.72376953 -0.1484375 2.23046875 C-0.09945312 1.49441406 -0.05046875 0.75835937 0 0 Z " fill="#173A5B" transform="translate(70,86)"/>
<path d="M0 0 C0.99 0.33 1.98 0.66 3 1 C3.99 1 4.98 1 6 1 C6 2.65 6 4.3 6 6 C3.69 5.67 1.38 5.34 -1 5 C-1.33 3.68 -1.66 2.36 -2 1 C-1.34 0.67 -0.68 0.34 0 0 Z M-1 2 C-0.34 2.66 0.32 3.32 1 4 C1 3.34 1 2.68 1 2 C0.34 2 -0.32 2 -1 2 Z " fill="#0C2E4F" transform="translate(57,99)"/>
<path d="M0 0 C0.99 0.33 1.98 0.66 3 1 C3.33 1.99 3.66 2.98 4 4 C3.236875 4.598125 2.47375 5.19625 1.6875 5.8125 C-0.3483575 7.46959332 -2.1978279 9.10297674 -4 11 C-3.50168276 7.31245243 -2.89932357 5.39509338 0 3 C-0.66 2.34 -1.32 1.68 -2 1 C-1.34 0.67 -0.68 0.34 0 0 Z " fill="#286FA8" transform="translate(63,87)"/>
<path d="M0 0 C1.32 0 2.64 0 4 0 C4 2.31 4 4.62 4 7 C2.35 7 0.7 7 -1 7 C-0.67 4.69 -0.34 2.38 0 0 Z " fill="#F4F6F7" transform="translate(84,90)"/>
<path d="M0 0 C1.65 0 3.3 0 5 0 C4.67 1.98 4.34 3.96 4 6 C2.68 6 1.36 6 0 6 C0 4.02 0 2.04 0 0 Z " fill="#F7F9FA" transform="translate(89,91)"/>
<path d="M0 0 C1.2065625 0.0309375 1.2065625 0.0309375 2.4375 0.0625 C1.87378586 3.33204202 0.93787734 4.88825883 -1.5625 7.0625 C-2.2225 5.0825 -2.8825 3.1025 -3.5625 1.0625 C-2.5625 0.0625 -2.5625 0.0625 0 0 Z " fill="#359BD1" transform="translate(76.5625,77.9375)"/>
<path d="M0 0 C0.66 0.33 1.32 0.66 2 1 C-2.75 5.875 -2.75 5.875 -5 7 C-5 6.34 -5 5.68 -5 5 C-5.99 4.67 -6.98 4.34 -8 4 C-6.865625 3.525625 -5.73125 3.05125 -4.5625 2.5625 C-1.24259834 1.36377917 -1.24259834 1.36377917 0 0 Z " fill="#3382AE" transform="translate(71,100)"/>
<path d="M0 0 C2.64 0.33 5.28 0.66 8 1 C7.0409375 1.433125 7.0409375 1.433125 6.0625 1.875 C3.84793921 2.82823451 3.84793921 2.82823451 3 5 C2.01 4.34 1.02 3.68 0 3 C0 2.01 0 1.02 0 0 Z " fill="#349BD1" transform="translate(65,79)"/>
</svg>
